<svg xmlns="http://www.w3.org/2000/svg" width="541.449" height="24.466" viewBox="0 0 541.449 24.466"><defs><style>.a{fill:#fff;}.b{fill:#e0e0e0;}.c{fill:#bd131c;}</style></defs><g transform="translate(-808.534 -1499.334)"><g transform="translate(-868.233 13)"><path class="a" d="M0,0H24.466V24.466H0Z" transform="translate(1701.233 1510.8) rotate(180)"/><g transform="translate(1712.387 1521.954) rotate(180)"><g transform="translate(18.426 18.426)"><rect class="b" width="9.922" height="9.922" transform="translate(0 0)"/></g></g></g><g transform="translate(-592.508 13)"><path class="a" d="M0,0H24.466V24.466H0Z" transform="translate(1701.233 1510.8) rotate(180)"/><g transform="translate(1712.387 1521.954) rotate(180)"><g transform="translate(18.426 18.426)"><rect class="b" width="9.922" height="9.922" transform="translate(0 0)"/></g></g></g><g transform="translate(-730.37 13)"><path class="a" d="M0,0H24.466V24.466H0Z" transform="translate(1701.233 1510.8) rotate(180)"/><g transform="translate(1712.387 1521.954) rotate(180)"><g transform="translate(18.426 18.426)"><rect class="b" width="9.922" height="9.922" transform="translate(0 0)"/></g></g></g><g transform="translate(-454.646 13)"><path class="a" d="M0,0H24.466V24.466H0Z" transform="translate(1701.233 1510.8) rotate(180)"/><g transform="translate(1712.387 1521.954) rotate(180)"><g transform="translate(18.426 18.426)"><rect class="b" width="9.922" height="9.922" transform="translate(0 0)"/></g></g></g><g transform="translate(-799.302 13)"><path class="a" d="M0,0H24.466V24.466H0Z" transform="translate(1701.233 1510.8) rotate(180)"/><g transform="translate(1712.387 1521.954) rotate(180)"><g transform="translate(18.426 18.426)"><rect class="b" width="9.922" height="9.922" transform="translate(0 0)"/></g></g></g><g transform="translate(-523.577 13)"><path class="a" d="M0,0H24.466V24.466H0Z" transform="translate(1701.233 1510.8) rotate(180)"/><g transform="translate(1712.387 1521.954) rotate(180)"><g transform="translate(18.426 18.426)"><rect class="b" width="9.922" height="9.922" transform="translate(0 0)"/></g></g></g><g transform="translate(-661.439 13)"><path class="a" d="M0,0H24.466V24.466H0Z" transform="translate(1701.233 1510.8) rotate(180)"/><g transform="translate(1712.387 1521.954) rotate(180)"><g transform="translate(18.426 18.426)"><rect class="b" width="9.922" height="9.922" transform="translate(0 0)"/></g></g></g><g transform="translate(-385.715 13)"><path class="a" d="M0,0H24.466V24.466H0Z" transform="translate(1701.233 1510.8) rotate(180)"/><g transform="translate(1712.387 1521.954) rotate(180)"><g transform="translate(18.426 18.426)"><rect class="b" width="9.922" height="9.922" transform="translate(0 0)"/></g></g></g><g transform="translate(-833.767 13)"><path class="a" d="M0,0H24.466V24.466H0Z" transform="translate(1701.233 1510.8) rotate(180)"/><g transform="translate(1712.387 1521.954) rotate(180)"><g transform="translate(18.426 18.426)"><rect class="b" width="9.922" height="9.922" transform="translate(0 0)"/></g></g></g><g transform="translate(-558.042 13)"><path class="a" d="M0,0H24.466V24.466H0Z" transform="translate(1701.233 1510.8) rotate(180)"/><g transform="translate(1712.387 1521.954) rotate(180)"><g transform="translate(18.426 18.426)"><rect class="b" width="9.922" height="9.922" transform="translate(0 0)"/></g></g></g><g transform="translate(-695.905 13)"><path class="a" d="M0,0H24.466V24.466H0Z" transform="translate(1701.233 1510.8) rotate(180)"/><g transform="translate(1712.387 1521.954) rotate(180)"><g transform="translate(18.426 18.426)"><rect class="b" width="9.922" height="9.922" transform="translate(0 0)"/></g></g></g><g transform="translate(-420.18 13)"><path class="a" d="M0,0H24.466V24.466H0Z" transform="translate(1701.233 1510.8) rotate(180)"/><g transform="translate(1712.387 1521.954) rotate(180)"><g transform="translate(18.426 18.426)"><rect class="b" width="9.922" height="9.922" transform="translate(0 0)"/></g></g></g><g transform="translate(-764.836 13)"><path class="a" d="M0,0H24.466V24.466H0Z" transform="translate(1701.233 1510.8) rotate(180)"/><g transform="translate(1712.387 1521.954) rotate(180)"><g transform="translate(18.426 18.426)"><rect class="b" width="9.922" height="9.922" transform="translate(0 0)"/></g></g></g><g transform="translate(-489.111 13)"><path class="a" d="M0,0H24.466V24.466H0Z" transform="translate(1701.233 1510.8) rotate(180)"/><g transform="translate(1712.387 1521.954) rotate(180)"><g transform="translate(18.426 18.426)"><rect class="b" width="9.922" height="9.922" transform="translate(0 0)"/></g></g></g><g transform="translate(-626.974 13)"><path class="a" d="M0,0H24.466V24.466H0Z" transform="translate(1701.233 1510.8) rotate(180)"/><g transform="translate(1712.387 1521.954) rotate(180)"><g transform="translate(18.426 18.426)"><rect class="b" width="9.922" height="9.922" transform="translate(0 0)"/></g></g></g><g transform="translate(-351.249 13)"><path class="a" d="M0,0H24.466V24.466H0Z" transform="translate(1701.233 1510.8) rotate(180)"/><g transform="translate(1712.387 1521.954) rotate(180)"><g transform="translate(18.426 18.426)"><rect class="c" width="9.922" height="9.922" transform="translate(0 0)"/></g></g></g></g></svg>