<svg xmlns="http://www.w3.org/2000/svg" width="295.085" height="35.017" viewBox="0 0 295.085 35.017"><g transform="translate(-1336 -3125)"><g transform="translate(1596.068 3125)"><path d="M177.977,146.483a2.5,2.5,0,0,0-.777,1.827,2.683,2.683,0,0,0,.547,1.685,2.069,2.069,0,0,0,3.184.208,2.676,2.676,0,0,0,.033-3.622A2.064,2.064,0,0,0,177.977,146.483Z" transform="translate(-157.809 -129.927)"/><path d="M102.655,146.506a2.687,2.687,0,0,0-.755,1.849,2.759,2.759,0,0,0,.263,1.149,2.116,2.116,0,0,0,3.688.427,2.718,2.718,0,0,0,.044-3.1A2.085,2.085,0,0,0,102.655,146.506Z" transform="translate(-90.749 -129.916)"/><path d="M17.509,0A17.509,17.509,0,1,0,35.017,17.509,17.5,17.5,0,0,0,17.509,0ZM29.852,22.608c-.022.328-.033.657-.077.974a.434.434,0,0,1-.153.263,20.223,20.223,0,0,1-5.942,2.987.217.217,0,0,1-.3-.109c-.372-.6-.755-1.215-1.127-1.817-.033-.055-.044-.109-.088-.186a12.851,12.851,0,0,0,2.068-1c-.427-.427-.427-.427-.93-.208a14.623,14.623,0,0,1-7.912,1.04,15.556,15.556,0,0,1-3.95-1.138c-.077-.033-.186-.088-.241-.055a5.134,5.134,0,0,0-.514.383c.733.35,1.412.678,2.09,1.007-.011.033-.011.066-.022.088-.394.646-.8,1.291-1.2,1.937a.241.241,0,0,1-.23.055,20.356,20.356,0,0,1-5.986-3,.276.276,0,0,1-.12-.208A20.523,20.523,0,0,1,8.776,9.881a.646.646,0,0,1,.274-.241,20.348,20.348,0,0,1,4.782-1.477.2.2,0,0,1,.252.12c.164.339.339.668.492,1.007a.21.21,0,0,0,.263.142c.635-.066,1.258-.142,1.893-.164a17.587,17.587,0,0,1,3.392.164c.153.022.208-.033.274-.153.153-.328.317-.646.471-.974.066-.142.153-.164.306-.142A19.9,19.9,0,0,1,25.9,9.63a.605.605,0,0,1,.285.241c.558.941,1.149,1.871,1.63,2.845a19.038,19.038,0,0,1,1.937,6.828c.044.492.077,1,.12,1.488v1.116C29.874,22.312,29.863,22.455,29.852,22.608Z"/></g><g transform="translate(1336 3125)"><path d="M34.361,12.748a2.476,2.476,0,0,1-.547,1.357c-.23.3-.46.58-.7.864a31.387,31.387,0,0,1-5.3,4.782.332.332,0,0,1-.109.055V14.882c0-1.9-.011-3.808,0-5.712a1.523,1.523,0,0,0-1.543-1.554c-.8.011-1.6,0-2.407,0a1.5,1.5,0,0,0-1.488,1.2,2.167,2.167,0,0,0-.033.46V22.17a1.207,1.207,0,0,1-.744,1.083c-.372.164-.744.317-1.116.481a.888.888,0,0,1-.12.033V12.891a1.521,1.521,0,0,0-1.5-1.488c-.843-.011-1.685,0-2.528,0a1.367,1.367,0,0,0-.646.153,1.485,1.485,0,0,0-.854,1.368c-.011,1.39,0,2.769,0,4.158v7.474a1.309,1.309,0,0,1-1.061,1.324c-.274.044-.536.131-.8.2-.044.011-.088.022-.153.033,0-.077-.011-.142-.011-.208V16.677a1.518,1.518,0,0,0-1.532-1.51H8.689a1.485,1.485,0,0,0-1.434,1.127,2.18,2.18,0,0,0-.044.46v9.269a1.247,1.247,0,0,1-1.138,1.237c-.5.055-1.007.109-1.521.153a3.252,3.252,0,0,1-.8,0,2.313,2.313,0,0,1-.963-.4,17.514,17.514,0,1,1,31.57-14.259Z"/><path d="M95.042,151.985A17.511,17.511,0,0,1,67.4,166.265c.657-.109,1.313-.208,1.959-.328a49.21,49.21,0,0,0,6.248-1.565,45.08,45.08,0,0,0,8.065-3.425,35.86,35.86,0,0,0,6.369-4.4A29.222,29.222,0,0,0,95.009,151Q95.042,151.492,95.042,151.985Z" transform="translate(-60.025 -134.476)"/></g><g transform="translate(1401.017 3125)"><path d="M140.81,220.7a.825.825,0,0,0-.81.821.8.8,0,1,0,1.609-.011A.813.813,0,0,0,140.81,220.7Z" transform="translate(-124.68 -196.549)"/><path d="M256.81,160.3a.8.8,0,1,0,.8.81A.8.8,0,0,0,256.81,160.3Z" transform="translate(-227.986 -142.759)"/><path d="M17.509,0A17.509,17.509,0,1,0,35.017,17.509,17.5,17.5,0,0,0,17.509,0ZM30.957,19.61a2.471,2.471,0,0,1-3.545.788.23.23,0,0,0-.274-.011q-4.169,2.265-8.349,4.519a.3.3,0,0,0-.175.285,2.494,2.494,0,0,1-4.935.23.319.319,0,0,0-.164-.175Q10.478,23.669,7.441,22.1c-.438-.23-.864-.471-1.313-.678a3.917,3.917,0,0,1-2.035-2.265,4.684,4.684,0,0,1-.175-3.25,2.543,2.543,0,0,1,1.335-1.554Q10.341,11.829,15.418,9.3c1.029-.514,2.057-1.029,3.086-1.532a2.03,2.03,0,0,1,1.86.033c1.051.514,2.1,1.04,3.162,1.543,2.046.974,4.1,1.937,6.15,2.9a1.655,1.655,0,0,1,.383.219.517.517,0,0,1-.033.843,2.408,2.408,0,0,1-.285.164l-13.066,6.8a1.553,1.553,0,0,1-1.061.285,3.336,3.336,0,0,1-.821-.339c-2.364-1.237-4.716-2.473-7.08-3.721-.416-.219-.821-.438-1.237-.657a.731.731,0,0,0-1.105.361,2.615,2.615,0,0,0-.186,1.5A3.4,3.4,0,0,0,5.9,19.445a1.973,1.973,0,0,0,.613.514c2.418,1.291,4.848,2.561,7.266,3.841a1.135,1.135,0,0,0,.109.044,2.521,2.521,0,0,1,4.311-.317c2.747-1.466,5.493-2.922,8.24-4.388-.033-.164-.066-.328-.088-.492a2.5,2.5,0,0,1,4.946-.7c.011.044.022.077.033.109V18.6A6.4,6.4,0,0,1,30.957,19.61Z"/></g><path d="M17.509,0A17.509,17.509,0,1,0,35.017,17.509,17.5,17.5,0,0,0,17.509,0ZM7.627,17.924q2.561-4.005,5.132-8.021c.131-.2.285-.394.438-.055a14.529,14.529,0,0,1,1.324,4.585,5.839,5.839,0,0,1-.832,3.064,1.3,1.3,0,0,1-1.51.875,14.9,14.9,0,0,0-1.849-.011H7.89a1.448,1.448,0,0,1-.361-.088A1.638,1.638,0,0,1,7.627,17.924Zm22.389,3.589a4.153,4.153,0,0,0-2,1.827c-.591.952-1.2,1.882-1.871,2.779a3.8,3.8,0,0,1-3.327,1.6c-3.3-.055-6.6-.011-9.9-.022a6.733,6.733,0,0,1-6.719-5.329,12.178,12.178,0,0,1-.153-1.4c-.022-.23.088-.328.328-.328h5.559c.252,0,.339.088.35.339a2.049,2.049,0,0,0,2.243,2.145h2.7V20.9c-.131-.011-.263-.022-.383-.022-.7,0-1.39,0-2.09-.011a2.956,2.956,0,0,1-.525-.1,3.165,3.165,0,0,1,.2-.481c.35-.6.711-1.193,1.083-1.784a7.518,7.518,0,0,0,.7-6.325A23.418,23.418,0,0,0,14.28,7.408a1.343,1.343,0,0,1-.131-.285c-.011-.022,0-.055.011-.164,1.018.263,2.013.525,3.1.81,0-.525-.022-1,.011-1.455a1.1,1.1,0,0,1,1.007-1,1.126,1.126,0,0,1,1.171.755,1.992,1.992,0,0,1,.077.624c.011.558,0,1.127,0,1.62a16.573,16.573,0,0,1,4.005,4.005,11.012,11.012,0,0,1,.722,1.258,4.005,4.005,0,0,1-.12,3.95A12.815,12.815,0,0,1,21.514,20.7a.741.741,0,0,1-.46.142c-.481.022-.974.011-1.488.011v2.21c.886,0,1.773.044,2.637-.022a2.105,2.105,0,0,0,.9-.449,2.221,2.221,0,0,0,.558-.5,3.789,3.789,0,0,1,2.189-1.269c1.554-.4,3.075-.875,4.618-1.324.438-.12.427-.088.492.361A1.343,1.343,0,0,1,30.016,21.514Z" transform="translate(1466.034 3125)"/><path d="M17.509,0A17.509,17.509,0,1,0,35.017,17.509,17.5,17.5,0,0,0,17.509,0ZM29.141,11.085c-.361.372-.788.678-1.171,1.04a.487.487,0,0,0-.153.328,15.365,15.365,0,0,1-3.6,10.3A14.048,14.048,0,0,1,16.2,27.642a15.728,15.728,0,0,1-5.307.263,14.894,14.894,0,0,1-6.15-2.156c-.033-.022-.055-.033-.142-.1a10.856,10.856,0,0,0,7.78-2.178,5.469,5.469,0,0,1-4.946-3.7,5.893,5.893,0,0,0,2.32-.088A5.445,5.445,0,0,1,5.559,14.4a5.475,5.475,0,0,0,2.4.646,5.32,5.32,0,0,1-2.189-3.239,5.193,5.193,0,0,1,.58-3.819,15.165,15.165,0,0,0,10.9,5.537A14.367,14.367,0,0,1,17.2,12a5.051,5.051,0,0,1,2.845-4.388,5.216,5.216,0,0,1,6.161.919.378.378,0,0,0,.383.1,11.069,11.069,0,0,0,2.9-1.094l.241-.12a5.771,5.771,0,0,1-2.167,2.889c.317-.055.624-.109.941-.175s.657-.164.974-.263.613-.219.919-.328l.055.055C30.005,10.089,29.589,10.615,29.141,11.085Z" transform="translate(1531.051 3125)"/></g></svg>